<?xml version="1.0" encoding="UTF-8" standalone="no"?><!DOCTYPE svg PUBLIC "-//W3C//DTD SVG 1.1//EN" "http://www.w3.org/Graphics/SVG/1.1/DTD/svg11.dtd"><svg width="100%" height="100%" viewBox="0 0 301 400" version="1.1" xmlns="http://www.w3.org/2000/svg" xmlns:xlink="http://www.w3.org/1999/xlink" xml:space="preserve" xmlns:serif="http://www.serif.com/" style="fill-rule:evenodd;clip-rule:evenodd;stroke-linecap:round;stroke-linejoin:round;"><rect id="Artboard1" x="0" y="0" width="300.182" height="399.879" style="fill:none;"/><path id="path2163" d="M249.145,285.053c13.807,-0 25,11.193 25,25c-0,13.807 -11.193,25 -25,25c-13.807,-0 -25,-11.193 -25,-25c-0,-13.807 11.193,-25 25,-25Z" style="fill-rule:nonzero;stroke:#000;stroke-width:1.5px;"/><path id="path3160" d="M249.145,73.053c13.807,-0 25,11.193 25,25c-0,13.807 -11.193,25 -25,25c-13.807,-0 -25,-11.193 -25,-25c-0,-13.807 11.193,-25 25,-25Z" style="fill-rule:nonzero;stroke:#000;stroke-width:1.5px;"/><path id="path3162" d="M249.145,143.053c13.807,-0 25,11.193 25,25c-0,13.807 -11.193,25 -25,25c-13.807,-0 -25,-11.193 -25,-25c-0,-13.807 11.193,-25 25,-25Z" style="fill-rule:nonzero;stroke:#000;stroke-width:1.5px;"/><path id="path3164" d="M249.145,213.053c13.807,-0 25,11.193 25,25c-0,13.807 -11.193,25 -25,25c-13.807,-0 -25,-11.193 -25,-25c-0,-13.807 11.193,-25 25,-25Z" style="fill-rule:nonzero;stroke:#000;stroke-width:1.5px;"/></svg>