<?xml version="1.0" encoding="UTF-8" standalone="no"?><!DOCTYPE svg PUBLIC "-//W3C//DTD SVG 1.1//EN" "http://www.w3.org/Graphics/SVG/1.1/DTD/svg11.dtd"><svg width="100%" height="100%" viewBox="0 0 301 400" version="1.1" xmlns="http://www.w3.org/2000/svg" xmlns:xlink="http://www.w3.org/1999/xlink" xml:space="preserve" xmlns:serif="http://www.serif.com/" style="fill-rule:evenodd;clip-rule:evenodd;stroke-linecap:round;stroke-linejoin:round;"><rect id="Artboard1" x="0" y="0" width="300.182" height="399.334" style="fill:none;"/><path id="path2163" d="M94.602,275.273c13.715,-0 25,11.286 25,25c-0,13.715 -11.285,25 -25,25c-13.715,-0 -25,-11.285 -25,-25c-0,-13.714 11.285,-25 25,-25Z" style="fill-rule:nonzero;stroke:#000;stroke-width:1.5px;"/><rect id="path2165" x="135.31" y="45.65" width="37.5" height="300" style="stroke:#000;stroke-width:5px;stroke-linecap:butt;stroke-linejoin:miter;"/><rect id="path3138" x="188.615" y="45.105" width="37.5" height="300" style="stroke:#000;stroke-width:5px;stroke-linecap:butt;stroke-linejoin:miter;"/><rect id="path3140" x="243.01" y="45.105" width="37.5" height="300" style="stroke:#000;stroke-width:5px;stroke-linecap:butt;stroke-linejoin:miter;"/><path id="path3160" d="M94.602,63.273c13.715,-0 25,11.286 25,25c-0,13.715 -11.285,25 -25,25c-13.715,-0 -25,-11.285 -25,-25c-0,-13.714 11.285,-25 25,-25Z" style="fill-rule:nonzero;stroke:#000;stroke-width:1.5px;"/><path id="path3162" d="M94.602,133.273c13.715,-0 25,11.286 25,25c-0,13.715 -11.285,25 -25,25c-13.715,-0 -25,-11.285 -25,-25c-0,-13.714 11.285,-25 25,-25Z" style="fill-rule:nonzero;stroke:#000;stroke-width:1.5px;"/><path id="path3164" d="M94.602,203.273c13.715,-0 25,11.286 25,25c-0,13.715 -11.285,25 -25,25c-13.715,-0 -25,-11.285 -25,-25c-0,-13.714 11.285,-25 25,-25Z" style="fill-rule:nonzero;stroke:#000;stroke-width:1.5px;"/></svg>