<?xml version="1.0" encoding="UTF-8" standalone="no"?><!DOCTYPE svg PUBLIC "-//W3C//DTD SVG 1.1//EN" "http://www.w3.org/Graphics/SVG/1.1/DTD/svg11.dtd"><svg width="100%" height="100%" viewBox="0 0 301 401" version="1.1" xmlns="http://www.w3.org/2000/svg" xmlns:xlink="http://www.w3.org/1999/xlink" xml:space="preserve" xmlns:serif="http://www.serif.com/" style="fill-rule:evenodd;clip-rule:evenodd;stroke-linecap:round;stroke-linejoin:round;"><rect id="Artboard1" x="0" y="0" width="300.182" height="400.424" style="fill:none;"/><path id="path2163" d="M86.855,219.72c13.715,0 25,11.286 25,25c0,13.715 -11.285,25 -25,25c-13.715,0 -25,-11.285 -25,-25c0,-13.714 11.285,-25 25,-25Z" style="fill-rule:nonzero;stroke:#000;stroke-width:1.5px;"/><rect id="path2165" x="128.653" y="49.553" width="37.5" height="300" style="stroke:#000;stroke-width:5px;stroke-linecap:butt;stroke-linejoin:miter;"/><rect id="path3138" x="187.951" y="50.098" width="37.5" height="300" style="stroke:#000;stroke-width:5px;stroke-linecap:butt;stroke-linejoin:miter;"/><rect id="path3140" x="246.159" y="51.187" width="37.5" height="300" style="stroke:#000;stroke-width:5px;stroke-linecap:butt;stroke-linejoin:miter;"/><path id="path3160" d="M86.855,127.72c13.715,0 25,11.286 25,25c0,13.715 -11.285,25 -25,25c-13.715,0 -25,-11.285 -25,-25c0,-13.714 11.285,-25 25,-25Z" style="fill-rule:nonzero;stroke:#000;stroke-width:1.5px;"/></svg>