<?xml version="1.0" encoding="UTF-8" standalone="no"?><!DOCTYPE svg PUBLIC "-//W3C//DTD SVG 1.1//EN" "http://www.w3.org/Graphics/SVG/1.1/DTD/svg11.dtd"><svg width="100%" height="100%" viewBox="0 0 301 401" version="1.1" xmlns="http://www.w3.org/2000/svg" xmlns:xlink="http://www.w3.org/1999/xlink" xml:space="preserve" xmlns:serif="http://www.serif.com/" style="fill-rule:evenodd;clip-rule:evenodd;stroke-linecap:round;stroke-linejoin:round;"><rect id="Artboard1" x="0" y="0" width="300.726" height="400.424" style="fill:none;"/><path id="path2163" d="M198.229,250.05c13.807,-0 25,11.193 25,25c-0,13.807 -11.193,25 -25,25c-13.807,-0 -25,-11.193 -25,-25c-0,-13.807 11.193,-25 25,-25Z" style="fill-rule:nonzero;stroke:#000;stroke-width:1.5px;"/><rect id="path2165" x="242.751" y="52.606" width="37.5" height="300" style="stroke:#000;stroke-width:5px;stroke-linecap:butt;stroke-linejoin:miter;"/><path id="path3160" d="M198.229,98.05c13.807,-0 25,11.193 25,25c-0,13.807 -11.193,25 -25,25c-13.807,-0 -25,-11.193 -25,-25c-0,-13.807 11.193,-25 25,-25Z" style="fill-rule:nonzero;stroke:#000;stroke-width:1.5px;"/><path id="path3162" d="M198.229,174.05c13.807,-0 25,11.193 25,25c-0,13.807 -11.193,25 -25,25c-13.807,-0 -25,-11.193 -25,-25c-0,-13.807 11.193,-25 25,-25Z" style="fill-rule:nonzero;stroke:#000;stroke-width:1.5px;"/></svg>